Coordinates
version=1
nRows=8
nColumns=40
inDegrees=yes

Units are S.I. units (second, meters, Newtons, ...)
Angles are in degrees.

endheader
time	pelvis_tilt	pelvis_list	pelvis_rotation	pelvis_tx	pelvis_ty	pelvis_tz	hip_flexion_r	hip_adduction_r	hip_rotation_r	knee_angle_r	knee_angle_r_beta	ankle_angle_r	subtalar_angle_r	mtp_angle_r	hip_flexion_l	hip_adduction_l	hip_rotation_l	knee_angle_l	knee_angle_l_beta	ankle_angle_l	subtalar_angle_l	mtp_angle_l	lumbar_extension	lumbar_bending	lumbar_rotation	arm_flex_r	arm_add_r	arm_rot_r	elbow_flex_r	pro_sup_r	wrist_flex_r	wrist_dev_r	arm_flex_l	arm_add_l	arm_rot_l	elbow_flex_l	pro_sup_l	wrist_flex_l	wrist_dev_l
     24.15000000	     -1.13623238	     -4.51496171	      2.40762087	      1.06961188	      0.93113090	      0.41115805	     30.18395860	     -6.55275996	     -4.48815748	     68.88040552	     68.88040552	     -4.08385524	    -15.63590175	      1.60159399	     16.38985250	     -5.02263949	     -5.03431683	     25.78448368	     25.78448368	     12.87625822	    -12.88595731	      0.78139931	    -11.87259970	      3.39208696	      1.84768119	      5.95039636	    -14.78585115	     -8.41585427	     30.09843388	     45.07234177	      0.00000000	      0.00000000	     12.91756152	    -15.95414872	      3.20097258	     47.80623069	     45.52504317	      0.00000000	      0.00000000
     24.16342857	     -1.11361644	     -4.62707209	      1.93970005	      1.06866860	      0.93210053	      0.41062632	     30.77459279	     -6.49283572	     -4.82141559	     66.80682764	     66.80682764	     -3.56765333	    -15.75025394	      1.47906893	     15.65774359	     -5.10331238	     -5.22945518	     25.22668908	     25.22668908	     12.92274329	    -13.21072786	      0.94450996	    -11.99766183	      3.61447685	      1.87109349	      5.67756617	    -14.91682892	     -8.41386162	     29.43673113	     45.11611908	      0.00000000	      0.00000000	     13.60589484	    -16.00410831	      3.30916247	     47.98001302	     45.53859786	      0.00000000	      0.00000000
     24.17685714	     -1.14748031	     -4.75852097	      1.48966731	      1.06770361	      0.93282928	      0.41019466	     31.30860406	     -6.37937575	     -5.20685056	     64.51797150	     64.51797150	     -3.07167747	    -15.82017311	      1.49074500	     15.07000579	     -5.24606160	     -5.52708488	     24.82218266	     24.82218266	     13.06965806	    -13.28572072	      0.97926830	    -12.05812326	      3.81660010	      1.74474706	      5.38662565	    -15.02321597	     -8.47442571	     28.98258008	     45.14720544	      0.00000000	      0.00000000	     14.10330762	    -16.10868657	      3.37877900	     48.27666791	     45.54782990	      0.00000000	      0.00000000
     24.19028571	     -1.18313884	     -4.88403189	      1.00929971	      1.06674846	      0.93351246	      0.40987875	     31.70629720	     -6.21297871	     -5.57048702	     61.94873738	     61.94873738	     -2.59711051	    -15.73934522	      1.55910860	     14.47689411	     -5.39336624	     -5.88648662	     24.41058756	     24.41058756	     13.22553851	    -13.32675040	      1.00417345	    -12.12153285	      4.00188088	      1.68891207	      5.12437919	    -15.09311189	     -8.55543190	     28.52665069	     45.17896284	      0.00000000	      0.00000000	     14.62684816	    -16.28716892	      3.43741683	     48.66471121	     45.55806206	      0.00000000	      0.00000000
     24.20371429	     -1.23849325	     -4.99080153	      0.54075340	      1.06574989	      0.93412763	      0.40964136	     31.97601905	     -6.01591857	     -5.91902753	     59.06422846	     59.06422846	     -2.11375103	    -15.48378284	      1.65362052	     13.91962300	     -5.52326151	     -6.27677249	     24.01395161	     24.01395161	     13.37675740	    -13.34901766	      1.01646534	    -12.19925142	      4.17014477	      1.66021478	      4.89921777	    -15.14538968	     -8.65366425	     28.07291269	     45.21182691	      0.00000000	      0.00000000	     15.10716859	    -16.44019295	      3.51746505	     49.09926272	     45.56588740	      0.00000000	      0.00000000
     24.21714286	     -1.19308933	     -5.07923736	      0.07550365	      1.06485552	      0.93481502	      0.40948458	     31.94228884	     -5.80120585	     -6.26696495	     55.80380763	     55.80380763	     -1.64052982	    -15.02718992	      1.62758682	     13.24006146	     -5.64266678	     -6.70928363	     23.59924167	     23.59924167	     13.51702639	    -13.27151722	      0.97497605	    -12.38377899	      4.32883261	      1.72673138	      4.76705119	    -15.23072966	     -8.85910755	     27.38807954	     45.26958762	      0.00000000	      0.00000000	     15.54854005	    -16.52239087	      3.74079017	     49.75131564	     45.56704745	      0.00000000	      0.00000000
     24.23057143	     -1.36082250	     -5.16621538	     -0.38599167	      1.06380841	      0.93507861	      0.40953135	     32.01052309	     -5.54883699	     -6.61573694	     52.22513650	     52.22513650	     -1.13193979	    -14.28335144	      1.59173307	     12.85697513	     -5.76467074	     -7.09449129	     23.26741355	     23.26741355	     13.62878010	    -13.24752370	      0.93641675	    -12.35711315	      4.47679167	      1.69358364	      4.64869962	    -15.19012524	     -9.01993126	     26.92674239	     45.31077472	      0.00000000	      0.00000000	     15.91577779	    -16.67570719	      3.89596908	     50.25595463	     45.56964732	      0.00000000	      0.00000000
     24.24400000	     -1.43055523	     -5.25527075	     -0.82868740	      1.06283692	      0.93536643	      0.40967376	     31.76273441	     -5.29419077	     -7.06563722	     48.24456323	     48.24456323	     -0.68803841	    -13.18400064	      1.30404673	     12.37755347	     -5.90170879	     -7.52470768	     22.96694450	     22.96694450	     13.80762356	    -13.18041786	      0.81473741	    -12.44036318	      4.57888872	      1.69796837	      4.62478056	    -15.17858775	     -9.27562599	     26.35913482	     45.36961237	      0.00000000	      0.00000000	     16.24537765	    -16.79154569	      4.14968765	     50.92268983	     45.56864939	      0.00000000	      0.00000000
